<?xml version="1.0" encoding="UTF-8"?>
<svg xmlns="http://www.w3.org/2000/svg" viewBox="0 0 64 40">
  <path d="M10 34 L38 16" fill="none" stroke="#8a6240" stroke-width="4.4" stroke-linecap="round"/>
  <path d="M10 34 L38 16" fill="none" stroke="#6d4a30" stroke-width="1.5" stroke-linecap="round" opacity="0.5"/>
  <ellipse cx="46" cy="12.5" rx="10.5" ry="8.2" fill="#7a5533"/>
  <ellipse cx="44" cy="11.2" rx="4.2" ry="3.1" fill="#9a7048" opacity="0.55"/>
  <ellipse cx="51.5" cy="11.8" rx="6.2" ry="5.0" fill="#8b8680"/>
  <ellipse cx="50" cy="10.4" rx="2.4" ry="1.8" fill="#a8a29c" opacity="0.7"/>
  <path d="M18 30 C20 27.5 24 25.5 27 23" fill="none" stroke="#6a8f3a" stroke-width="2.5" stroke-linecap="round"/>
  <path d="M19 31 C23 28 26 26 29 23.5" fill="none" stroke="#8aaa4a" stroke-width="2.0" stroke-linecap="round"/>
  <path d="M17 29 C21 27 25 24.5 28 22" fill="none" stroke="#5c7a32" stroke-width="1.6" stroke-linecap="round"/>
  <path d="M42 16 C44 18 48 17 51 15" fill="none" stroke="#6a8f3a" stroke-width="1.8" stroke-linecap="round"/>
  <path d="M41 14 C45 16.5 49 16 52 13.5" fill="none" stroke="#5c7a32" stroke-width="1.4" stroke-linecap="round"/>
  <circle cx="19.2" cy="30.4" r="1.3" fill="#5c7a32"/>
</svg>
